<svg id="f36d2c92-d126-4d25-b4f4-dcf4c256c501" data-name="Layer 1" xmlns="http://www.w3.org/2000/svg" width="865.76" height="682.89" viewBox="0 0 865.76 682.89"><path d="M437.29,253a31.4,31.4,0,0,0,9.15-7.46c2.81-3.36,3.87-7.22,6.11-10.84a3.71,3.71,0,0,1,4.69-1.19,1.94,1.94,0,0,1,2.92.12c9,10,25.14,7.23,29.26-6a2.92,2.92,0,0,1,4.14-1.9c14.88,7.55,31.07,14.54,48.16,12.15,8.16-1.14,15.95-4.64,21.25-11.1a32.18,32.18,0,0,0,5.22-8.74c1.15-3.05,1.16-6.39,2.71-9.26a4,4,0,0,1,6.93-.2c2.24.21,4.28,1.79,6.51,2.66a30.63,30.63,0,0,0,12.31,2.32c7.71-.35,14.86-5.09,16.07-13a3.41,3.41,0,0,1,4.89-2.24c14,9,32.73,12.84,48.06,4.56,13.76-7.43,22-24.14,17.44-39.4-.87-2.94,1.64-4.91,4-4.82a42.36,42.36,0,0,1,3.7-4.14,33.19,33.19,0,0,0,7.05-14.61c2-9.94-2.47-22.31-13.31-24.59a3.74,3.74,0,0,1-2.45-5.33c6.7-12.45,7.24-28.44-3.51-38.86-11.82-11.46-26.27-5.23-39.51-.6a3.08,3.08,0,0,1-3.39-.91,3.59,3.59,0,0,1-1.42.38c-2.68,0-3.53-2.4-3.79-4.7C630,61.34,630,57.4,627.59,54c-5.61-8-17.59-6.93-23.68-.29-1.8,2-4.47.93-5.45-1.21-3-6.5-7-13-12.81-17.31-7.25-5.29-16-4.79-24.12-1.92a58.46,58.46,0,0,0-20.09,12.29c-5.29,4.92-8.94,10.56-12.76,16.5a1,1,0,0,1,.23.88,7,7,0,0,1-1.23,2.26,3.15,3.15,0,0,1-3,.94c-7.19-1-13.22-8.45-19.34-12.05-7.92-4.68-16.58-6.45-25.62-4.44-16.92,3.77-30.13,17.87-39.1,32-4.49,7.07-6.11,13.61-7,21.77-.82,7.11-5,8.76-11.48,7.63-8.37-1.46-17,.78-22.39,7.8a22.34,22.34,0,0,0-2.09,23c.88,1.79.13,4.92-2.45,4.69-8.62-.8-17.35,3.39-20.79,11.65a20.41,20.41,0,0,0-.87,12.36c.84,3.73,2.93,6.92,3.71,10.66.14.66-.38,1.46-1.15,1.23a.94.94,0,0,1-.15-.06c-4.11,4.91-7.32,10.09-5.89,16.83,1.34,6.36,6.72,10.95,12.9,12.29A3.19,3.19,0,0,1,385,216c-3.54,8.59,2,18,7.66,24.3a49.41,49.41,0,0,0,19.93,13.88C420.66,257.09,429.63,257.07,437.29,253Z" fill="#fff"></path><path d="M783.2,468.67a2.74,2.74,0,0,1-1.4-1.88,18.84,18.84,0,0,1-.32-1.9c-.94-6.73-6.71-15.06-9.43-21.37q-13.42-31.23-25.36-63.11c-25.09-67.11-46.2-135.77-66.23-204.55a42.36,42.36,0,0,1-18.52,21.77c-16.06,9-35.85,6.81-51.3-2.29a22.49,22.49,0,0,1-16.49,12.2,31.26,31.26,0,0,1-14.8-1.26,45.89,45.89,0,0,1-6.8-2.46c-.68,6.17-5.1,12.89-8.85,16.64a43.15,43.15,0,0,1-22.26,11.72c-18.37,3.64-36.1-3.35-52.26-11.56-6.52,13-23.95,16.75-34.68,6-1.83,8.79-10.43,16.79-18,20.49a34.62,34.62,0,0,1-14.17,3.47c3,6.59,6,13.18,8.84,19.85C459,336.2,485.24,403,502.94,472.3a693.34,693.34,0,0,1,18.72,103.77c.85,8.7,1.23,17.44,2.07,26.14.81,8.34,3,16.31,9.35,22.15,10.6,9.77,26.51,11.53,40.28,11.28,18-.33,35.79-4,53.24-8.25a517.34,517.34,0,0,0,51.68-15.33A504.88,504.88,0,0,0,728.89,591c15.4-7.44,31.12-15.23,44.87-25.49,12.26-9.14,23.06-21.58,26.29-36.91,3.58-17-4.49-33.29-11.53-48.26C786.7,476.47,785,472.56,783.2,468.67Z" fill="#3f3d56"></path><path d="M802.93,171c-3.2-5.47-7.18-10.76-12.77-14-6.32-3.61-13.62-3.12-20.47-1.54-15.31,3.55-30.24,8.8-45.55,12.47-11.77,2.83-31.42,9.71-43.78,8.72q3.45,11.25,6.84,22.53,2.92,9.66,5.86,19.32c9.26-6.67,27.05-13.59,37.94-16.61,9.89-2.74,22.24-7.39,32.56-4.67,9.6,2.53,16.5,10.55,20.71,19.18,5.4,11.07,8.56,23.46,12.43,35.12,3.7,11.17,7.17,22.41,10.75,33.62,3,9.33,6.16,18.65,8.1,28.26,1.82,9,2.61,18.18,1,27.27-1.73,9.89-7,18.19-12.66,26.25a219,219,0,0,1-18.39,23.33c-5.79,6.18-19,18.81-26.94,22.44.79,2,1.53,3.94,2.32,5.9,5.45,13.5,11.19,26.88,17.1,40.18.86-1.55,8-9.19,9.08-10.72,4.86-6.74,10.49-13,15.79-19.36q18-21.68,36.25-43.11c9.19-10.79,18.24-22.15,20.23-36.62,1.93-14-1.92-28.24-5.55-41.64a818.13,818.13,0,0,0-31.86-94.19C816.18,199,810.65,184.18,802.93,171Z" fill="#555555" data-secondary="true"></path><path d="M788.52,480.34c-1.82-3.87-3.55-7.78-5.32-11.67a2.74,2.74,0,0,1-1.4-1.88,18.84,18.84,0,0,1-.32-1.9c-.94-6.73-6.71-15.06-9.43-21.37q-13.42-31.23-25.36-63.11c-25.09-67.11-46.2-135.77-66.23-204.55a42.36,42.36,0,0,1-18.52,21.77A47,47,0,0,1,633.22,203c26.12,40.11,40.1,88.18,38.67,136.06-1.84,61.94-29.34,122.73-74.64,165-14.12,13.18-30.12,24.74-48.27,31.35-10.19,3.71-20.81,5.78-31.51,7.59,1.67,11,3.1,22,4.19,33,.85,8.7,1.23,17.44,2.07,26.14.81,8.34,3,16.31,9.35,22.15,10.6,9.77,26.51,11.53,40.28,11.28,18-.33,35.79-4,53.24-8.25a517.34,517.34,0,0,0,51.68-15.33A504.88,504.88,0,0,0,728.89,591c15.4-7.44,31.12-15.23,44.87-25.49,12.26-9.14,23.06-21.58,26.29-36.91C803.63,511.59,795.56,495.31,788.52,480.34Z" fill="#555555" data-secondary="true"></path><path d="M676.73,217.47h0q-2.73-9.74-5.21-19.36c-.55-2.15-1.09-4.28-1.62-6.41h0a42,42,0,0,1-3.45,2.93l-.59.45a42.29,42.29,0,0,1-3.91,2.55c-1.06.6-2.14,1.14-3.24,1.64l-1,.43c-.76.33-1.53.65-2.3.93-.4.14-.8.26-1.2.39-.74.25-1.48.48-2.23.69-.4.11-.81.2-1.22.3-.76.19-1.53.36-2.3.51l-1.15.2c-.81.13-1.63.25-2.45.34l-1,.11c-.88.08-1.76.13-2.64.16l-.87,0c-1,0-2,0-3,0l-.57,0c-1.17-.06-2.35-.16-3.52-.29h0a58.11,58.11,0,0,1-22.58-7.68,22.49,22.49,0,0,1-16.49,12.2,31.26,31.26,0,0,1-14.8-1.26,45.89,45.89,0,0,1-6.8-2.46c-.68,6.17-5.1,12.89-8.85,16.64a43.15,43.15,0,0,1-22.26,11.72c-18.37,3.64-36.1-3.35-52.26-11.56-6.52,13-23.95,16.75-34.68,6-1.83,8.79-10.43,16.79-18,20.49a34.25,34.25,0,0,1-4.58,1.8c.57,1.3,1.17,2.64,1.79,4,.2.44.4.89.61,1.34.42.93.85,1.86,1.3,2.82.23.51.48,1,.72,1.55l1.31,2.78.74,1.56,1.45,3c.22.46.43.91.66,1.37l1.76,3.66.41.83c17.85,36.7,42.65,84.11,56.45,131,12.05,40.88,25.8,96.09,33.67,137.25h0c2.58,13.48,4.53,25.46,5.58,34.93l0,.26c.08.79.16,1.55.23,2.3l0,.13c.08.8.15,1.57.21,2.33,0,.06,0,.11,0,.17,0,.64.1,1.26.14,1.87,0,.19,0,.38,0,.57,0,.49.06,1,.08,1.44l0,.54c0,.62.05,1.22.06,1.8.73,31.33,93.92,12.3,150.14-8.92,57-21.53,92.11-50.14,93.89-67C784.88,495.31,713.85,349.68,676.73,217.47Z" fill="#CDF3E1" data-primary="true"></path><path d="M468.11,161.31l-.21.08.19-.07Z" fill="#e1e1e1"></path><path d="M684.54,115.28a3.74,3.74,0,0,1-2.45-5.33c6.7-12.45,7.24-28.44-3.51-38.86a21.86,21.86,0,0,0-12.46-6.24c3.36,8.23,6.34,16.53,6.58,25.34.38,14.06-10.15,29.88-24.12,28.29A25.93,25.93,0,0,1,610,143.3a26,26,0,0,0,8.05-7.2,41.72,41.72,0,0,0,3.62-5.87c1.13-2.25,2.67-4.81,2.61-7.37-.07-3.4-4.17-4.51-6.41-2.37-1.38,1.31-1.91,3.31-2.69,5a52.92,52.92,0,0,1-2.47,4.72,22.43,22.43,0,0,1-6.55,7.32,12,12,0,0,1-8.13,2.34,10.39,10.39,0,0,1-4.32-1.58,20.47,20.47,0,0,0,3.63-3,13.11,13.11,0,0,0,2.77-3.86,5.13,5.13,0,0,0,.25-3.26c-.09-.33-.34-.64-.39-1,0,.17.09-.72.09-.66a.76.76,0,0,0-1.16-.61s-.42.28-.5.36-.32,0-.36,0a5.24,5.24,0,0,0-2.21.72,11.89,11.89,0,0,0-2.94,3.14,16,16,0,0,1-5.21,4.51c.22-.1-.53.21-.52.21-.26.09-.51.18-.77.25-.42.13-1,.28-1.12.29a12.09,12.09,0,0,1-3,.18,24.81,24.81,0,0,1-2.83-.56c-.91-.21-2.25-.33-2.6.79-.8,2.54,3.25,4.39,5.07,4.87a13.46,13.46,0,0,0,7-.19,13.21,13.21,0,0,0,7,4.75,16.39,16.39,0,0,0,8.23.31c-3.16,15.11-14.46,28.44-29.07,33.6-16.42,5.79-36.07.94-47.91-11.83A41.66,41.66,0,0,1,462.57,195a18.52,18.52,0,0,0,8.71-5.39c2.82-3.19,5.35-8.62,3.09-12.62a15.54,15.54,0,0,0,4.06-2.58c1.45-1.31,3.05-3.16,3.25-5.16a4,4,0,0,0-1.12-3.4,3.37,3.37,0,0,0-4,0,5.42,5.42,0,0,0-1.22,1.07,7.79,7.79,0,0,0-.64.87l-.05.07a12.62,12.62,0,0,1-1.54,1.73l-.35.31c-.32.23-.62.47-.95.68s-.61.36-.92.54l-.07,0,.09,0-.1,0-.19.07-.27.11c-.43.15-.87.28-1.31.39l-.3.06-.46,0a17,17,0,0,1-2.57,0l-.29,0-.42-.06c-.45-.08-.88-.21-1.32-.3-.85-.19-1.79-.35-2.57-.47a1.94,1.94,0,0,0-2,2.9c1.41,2.63,4.42,3.93,7.35,4.33a12.56,12.56,0,0,0-.25,2c0,.13-.22,1.34,0,.53-.07.28-.13.56-.19.84a8.58,8.58,0,0,1-1.71,2.87,16.14,16.14,0,0,1-6.6,4.19,15.35,15.35,0,0,1-7.92.69c-3.13-.56-5.49-2.09-8.28-3.42-2-.93-4.37,1.31-3,3.27,2.21,3.14,6.29,5,9.92,6a27.66,27.66,0,0,0,5.84.9c-2.73,7.08-6.32,13.88-12.69,17.71-7.63,4.6-17.6,3.67-25.65-.14s-14.59-10.12-21-16.32c-6.07,7.64-19.17,6.27-25.17-.85a15.42,15.42,0,0,0,.32,2.8c1.34,6.36,6.72,10.95,12.9,12.29A3.19,3.19,0,0,1,385,216c-3.54,8.59,2,18,7.66,24.3a49.41,49.41,0,0,0,19.93,13.88c8.08,2.87,17.05,2.85,24.71-1.26a31.4,31.4,0,0,0,9.15-7.46c2.81-3.36,3.87-7.22,6.11-10.84a3.71,3.71,0,0,1,4.69-1.19,1.94,1.94,0,0,1,2.92.12c9,10,25.14,7.23,29.26-6a2.92,2.92,0,0,1,4.14-1.9c14.88,7.55,31.07,14.54,48.16,12.15,8.16-1.14,15.95-4.64,21.25-11.1a32.18,32.18,0,0,0,5.22-8.74c1.15-3.05,1.16-6.39,2.71-9.26a4,4,0,0,1,6.93-.2c2.24.21,4.28,1.79,6.51,2.66a30.63,30.63,0,0,0,12.31,2.32c7.71-.35,14.86-5.09,16.07-13a3.41,3.41,0,0,1,4.89-2.24c14,9,32.73,12.84,48.06,4.56,13.76-7.43,22-24.14,17.44-39.4-.87-2.94,1.64-4.91,4-4.82a42.36,42.36,0,0,1,3.7-4.14,33.19,33.19,0,0,0,7.05-14.61C699.82,129.93,695.38,117.56,684.54,115.28Z" fill="#e1e1e1"></path><path d="M511.82,64.54a20.27,20.27,0,0,0-15.23-.73,5.51,5.51,0,0,0-1.76-1c-4.66-1.61-9.33-3.14-14.41-3.34a34.88,34.88,0,0,0-15,2.82,33.24,33.24,0,0,0-12.56,9.11c-3.61,4.4-8,10.74-6.92,16.66.4,2.27,3.53,3,5.23,1.9,2.32-1.54,3.4-3.79,4.71-6.16a34.15,34.15,0,0,1,4.33-6.27,24.17,24.17,0,0,1,10.1-6.81A26.21,26.21,0,0,1,482,69.28a23.94,23.94,0,0,1,6.13,1.52h0c-1.39,2.29-2.44,5-1.85,7.72a2.59,2.59,0,0,0,3.85,1.4,16.17,16.17,0,0,0,2.12-2.18c.34-.41.67-.82,1-1.2.17-.18.33-.35.51-.51,0,0,.17-.16.27-.25l.3-.24c.18-.14.38-.28.57-.41.39-.27.8-.51,1.2-.77s.8-.53,1.22-.76c.18-.11.37-.2.56-.3l.1,0c.93-.33,1.85-.61,2.8-.86l.22-.07.34,0a14.52,14.52,0,0,1,1.48-.08,9.42,9.42,0,0,1,1.18,0,2.49,2.49,0,0,0,.34.08l.72.14c.48.11.94.27,1.41.38l.74.33a5,5,0,0,0,6.59-2.05C514.93,68.87,514.31,65.65,511.82,64.54Z" fill="#e1e1e1"></path><path d="M409.07,130.71c.08-.06.12-.15.19-.21S408.78,130.91,409.07,130.71Z" fill="#fdffff"></path><path d="M413.21,124.84l.13-.12,0,0S413.25,124.81,413.21,124.84Z" fill="#fdffff"></path><path d="M423.11,115.16c-.05,0-.11,0-.16.09a4.32,4.32,0,0,0-1.33-.75,5.29,5.29,0,0,0-2.52-.67c-.48,0-1,.07-1.46.12-1.46.17-2.92.37-4.36.63A13,13,0,0,0,406.7,118a10.85,10.85,0,0,0-3.25,5.86c-.48,2.64.16,5.79,2.68,7.14a2.71,2.71,0,0,0,3.14-.55,4.41,4.41,0,0,0,.94-1c.18-.27.33-.55.49-.83l.24-.44c.16-.31.07-.21,0-.05.24-.44.6-.9.83-1.31a2.43,2.43,0,0,1,.15-.26c-.15.22-.35.47-.09.11s.48-.68.71-1,.37-.48.58-.69l.12-.12c-.21.16-.39.25,0-.06l.06,0a.81.81,0,0,0,.16-.16.83.83,0,0,1-.13.14c.23-.16.47-.3.71-.45l.18-.07.65-.19.1,0,.43-.06.72-.07a22.33,22.33,0,0,0,3.83-.52,5.94,5.94,0,0,0,2.33-1.16,4,4,0,0,0,.95-1.07s.06-.1.1-.14h0a3.79,3.79,0,0,0,.94-3.43,1.26,1.26,0,0,0,0-.28,2.31,2.31,0,0,0-.35-1.14c.11.6.1-.37.1-.48A.62.62,0,0,0,423.11,115.16Z" fill="#fdffff"></path><path d="M411.89,126.57a.79.79,0,0,0,.12-.2A.71.71,0,0,1,411.89,126.57Z" fill="#fdffff"></path><polygon points="409.28 130.49 409.27 130.49 409.26 130.5 409.28 130.49" fill="#fdffff"></polygon><path d="M600.33,68a15.66,15.66,0,0,0-8-3.9l-.31,0a13.91,13.91,0,0,0-1.91-4.55,21.69,21.69,0,0,0-4.1-4.86A21.78,21.78,0,0,0,562,51.24c-3.75,1.76-8,4.8-8.75,9.16a2.84,2.84,0,0,0,4.24,3,32.69,32.69,0,0,0,3.79-2.64,17.78,17.78,0,0,1,3.59-2.07,13,13,0,0,1,8-.75c.35.08.69.17,1,.27l.48.15a14.62,14.62,0,0,1,2.15,1c.31.17.61.36.91.55a.26.26,0,0,0,.09,0l.15.12a23.54,23.54,0,0,1,1.91,1.69l.73.78.21.24c.45.61.89,1.21,1.28,1.86l.14.25c-2.17.84-4.36,2.26-5.29,4.29a2.28,2.28,0,0,0,2.07,3.3,20.5,20.5,0,0,0,3.39-.75l.76-.17h0l.87-.15.4-.08.51-.06c.51-.05,1-.08,1.54-.08q.46,0,.93,0h.11c.5.11,1,.16,1.5.29.14,0,.27.08.4.12l.48.23a14.51,14.51,0,0,1,1.28.72l0,0s.37.27.46.34c.79.64,1.61,1.29,2.34,2l.51.53c.28.38.56.76.82,1.16s.47.87.72,1.29a6.86,6.86,0,0,0,2.52,2.41c2.44,1.53,5.91-.29,6.46-3C605.56,73.77,602.86,70.37,600.33,68Z" fill="#e1e1e1"></path><path d="M642.64,83.36a9.18,9.18,0,0,0-1.52,2.38c-.13.26-.28.5-.43.75l-.15.2a15.67,15.67,0,0,1-1.43,1.51,1.53,1.53,0,0,1-.17.14,8.54,8.54,0,0,1-.88.6c-.25.15-.5.28-.75.42s-.25.11-.38.15a14.37,14.37,0,0,1-1.92.63,3.78,3.78,0,0,0-.46.1l.07,0a15.06,15.06,0,0,0-1.52.26c-.16,0-.5.24-.16,0s0,0-.19,0a3.57,3.57,0,0,0-1.61.53,1.83,1.83,0,0,0-1,2.55,4,4,0,0,0,2.5,2.28,9,9,0,0,0,3.4.66,12.06,12.06,0,0,0,5.31-1.1,13.54,13.54,0,0,0,5.05-3.57,14.34,14.34,0,0,0,1.74-2.57,6.31,6.31,0,0,0,.61-4.6C648.1,81.94,644.39,81.55,642.64,83.36Z" fill="#e1e1e1"></path><path d="M634.62,90.22h0C635,90.17,635.13,90,634.62,90.22Z" fill="#e1e1e1"></path><path d="M522.05,109.93c-1.78,2.23-2.29,5.21-3.93,7.59a16.07,16.07,0,0,1-5.87,5.11,17.09,17.09,0,0,1-8.32,1.93c-3.27-.06-6.09-1.7-9.25-2.09a2,2,0,0,0-1.76,3.36c2.52,2.56,7,3.91,10.46,4.37a22.09,22.09,0,0,0,11.7-1.49,22.76,22.76,0,0,0,8.73-6.58c2.38-3,4.74-7,3.92-10.94C527.23,108.75,523.55,108,522.05,109.93Z" fill="#e1e1e1"></path><path d="M409.75,163.27c-.81.38.39,0-.2.17-.25.07-.56.06-.83.15a10.4,10.4,0,0,0-1.58.61,8.69,8.69,0,0,0-2.63,2.39,17.74,17.74,0,0,1-1.93,2.07,13.23,13.23,0,0,1-1.12.82l-.68.41-.34.17a3.4,3.4,0,0,0-.36.14l-.48.15-.61.16c-.06,0-.07,0-.07,0h-.11a10.36,10.36,0,0,1-1.25.08h-.62l-.29,0a7,7,0,0,1-1.1-.25,6.39,6.39,0,0,1-.76-.33,13.16,13.16,0,0,0-2.25-.89,1.46,1.46,0,0,0-1.75,1.44c-.21,2.47,2.48,4,4.48,4.7a11,11,0,0,0,6.63,0,16,16,0,0,0,6.48-4.22,8.3,8.3,0,0,0,2.43-3.87,7.17,7.17,0,0,0,.1-2,6,6,0,0,0-.15-.85c-.12-.26-.11-.24,0,.06a4.53,4.53,0,0,0,0-.52C410.86,163.24,410.18,163.06,409.75,163.27Z" fill="#fabd62"></path><path d="M391,151.18c.15.15-.07-.12-.12-.18l0,0c.22.35.16.2-.19-.48a2.66,2.66,0,0,0-1.05-.92,3.33,3.33,0,0,0-1.15-.27,3,3,0,0,0-2.1,0,7.15,7.15,0,0,0-1.59.79,9.19,9.19,0,0,0-2.06,1.87,10,10,0,0,0-1.6,3,4.89,4.89,0,0,0,.12,3.33,2.72,2.72,0,0,0,1.93,1.79,2.62,2.62,0,0,0,2.28-.57,2.54,2.54,0,0,0,.8-1.53l.08.12c-.07.18-.14.36-.2.55a4.37,4.37,0,0,1,.33-.69,7.25,7.25,0,0,0,.49-1.27h0l-.24.63a5.1,5.1,0,0,1,.48-.89,5.57,5.57,0,0,1,.52-.57,7.79,7.79,0,0,1,.85-.56,3.84,3.84,0,0,0,1.17-.83,3.42,3.42,0,0,0,.26-.4,2.85,2.85,0,0,0,1-1.39l.19-.06a.56.56,0,0,0,.21-.94C391.23,151.43,391.1,151.31,391,151.18Z" fill="#fdffff"></path><path d="M467.12,250.52a1,1,0,0,1-.14-.21,4.28,4.28,0,0,0-.5-.61l-.21-.35c-.1-.16-.22-.32-.31-.49l.24.5,0,0a10,10,0,0,0-.77-1.53,10.88,10.88,0,0,0-1.34-1.62,3.5,3.5,0,0,0-5.41.95l0,.1-.23.07-1.23.57a1.49,1.49,0,0,0-.59.47,2.73,2.73,0,0,0-.62.58,5.1,5.1,0,0,0,.32,7.19,5.21,5.21,0,0,0,2.29,1.2l2,.23.45,0,.76.08a2.5,2.5,0,0,0,1.3-.05c.28-.05.53-.08.8-.15a6.66,6.66,0,0,0,1.9-.77,5,5,0,0,0,2-2.76c0-.38.07-.76.11-1.15A4.46,4.46,0,0,0,467.12,250.52Z" fill="#fdffff"></path><path d="M490.29,259.53a3.46,3.46,0,0,0-1.25-1.24,3.35,3.35,0,0,0-1.59-.75l-1.18-.12a4.64,4.64,0,0,0-2.34.73l-.91.77a4.62,4.62,0,0,0-1.09,2.06,5.52,5.52,0,0,0-.11,1.35c0,.21.06.42.1.63s.07.42.11.63l0,.1a3.31,3.31,0,0,0,.9,1.56,4.72,4.72,0,0,0,4.82,1.45l1.12-.52a4.55,4.55,0,0,0,1.57-1.72l.41-1.1a4.23,4.23,0,0,0,.05-.5,5.21,5.21,0,0,0-.64-3.33Z" fill="#fdffff"></path><path d="M534.71,243.63a3.94,3.94,0,0,0-1.54-1.41l-1-.37a4.05,4.05,0,0,0-2.13.08,3.08,3.08,0,0,0-1.4.81,3,3,0,0,0-1,1.19,4.62,4.62,0,0,0-.28,3.12l.46,1a4,4,0,0,0,1.54,1.41l1,.37a4.2,4.2,0,0,0,2.14-.08,4.55,4.55,0,0,0,2.4-2,3.08,3.08,0,0,0,.42-1.5,3.16,3.16,0,0,0-.14-1.61C535,244.29,534.87,244,534.71,243.63Z" fill="#fff"></path><path d="M556.5,252.63c.15.31.29.61.43.92a8.19,8.19,0,0,0-2-3.45,3.75,3.75,0,0,0-3.84-.78,8.61,8.61,0,0,0-1.28.57,7.23,7.23,0,0,0-3.54,6.38,5.77,5.77,0,0,0,.85,2.51,2.19,2.19,0,0,0,.53.64,2.34,2.34,0,0,0,.35,1.12,3.56,3.56,0,0,0,1.07,1.53,5.78,5.78,0,0,0,2.14,1.12,5.42,5.42,0,0,0,3.65-.63,5.57,5.57,0,0,0,1.95-2.11,11.19,11.19,0,0,0,.58-1.59,9.41,9.41,0,0,0,.25-2.18A8.59,8.59,0,0,0,556.5,252.63Z" fill="#fff"></path><path d="M579.5,222.22l0,.05h0Z" fill="#fff"></path><path d="M579.54,222.27s0,.09.08.12a.73.73,0,0,0,.09.08Z" fill="#fff"></path><path d="M579.62,222.39a2,2,0,0,0-.67-.56,2.76,2.76,0,0,0-1.32-.31l-.18,0-.16,0-.67.11a1.92,1.92,0,0,0-.86.5,1.32,1.32,0,0,0-.44.47,2,2,0,0,0-.41.87l-.06.65c0,.23.08.45.11.67a1.92,1.92,0,0,0,.5.86,1.86,1.86,0,0,0,.74.62l.13.06c.24.1.48.19.73.27l.07,0,.67.06a2.85,2.85,0,0,0,.71-.12l.63-.29a1.72,1.72,0,0,0,.52-.44l0,0a2,2,0,0,0,.48-.83,2,2,0,0,0,.18-1l-.12-.66A2.56,2.56,0,0,0,579.62,222.39Z" fill="#fff"></path><path d="M579.71,222.47h0l.22.27Z" fill="#fff"></path><path d="M619.73,228.88l-.86-1,0,0-.11-.1a2.75,2.75,0,0,0-.33-.23c-.1-.08-.16-.21-.27-.28a2.38,2.38,0,0,0-.45-.23l0,0a1.77,1.77,0,0,0-.49-.26,4,4,0,0,0-.48-.09,5.09,5.09,0,0,0-.66-.12,2.88,2.88,0,0,0-.51-.1l-.18,0a5,5,0,0,0-1.49.2,5.09,5.09,0,0,0-3.41,3.68,5.17,5.17,0,0,0-.11.85,3.75,3.75,0,0,0,.18,2.08l.06.13c.07.16.14.32.2.48a4,4,0,0,0,1,1.74,3.83,3.83,0,0,0,1.49,1.24l1.22.46a3.8,3.8,0,0,0,2,0,2.54,2.54,0,0,0,1.28-.4,3.78,3.78,0,0,0,1.63-1.14l.74-1.06a5,5,0,0,0,.58-2.52,6.07,6.07,0,0,0-.24-1.41c0-.15,0-.3-.08-.45a.36.36,0,0,0,0-.11s0-.06,0-.08Z" fill="#fff"></path><path d="M620.52,208.3a2.65,2.65,0,0,0-.94-.94,1.71,1.71,0,0,0-.78-.4,1.61,1.61,0,0,0-.86-.2,1.72,1.72,0,0,0-.9,0,2.66,2.66,0,0,0-1.3.47,3.75,3.75,0,0,0-.44.24,4.64,4.64,0,0,0-1.62,1.76,3.6,3.6,0,0,0-.26.52,12.64,12.64,0,0,0-.54,1.45,5.44,5.44,0,0,0-.15.54,6.53,6.53,0,0,0-.17,1.59c.05.55.16,1.09.26,1.63a4,4,0,0,0,.16.57l.47,1,.71.84.88.61a3.14,3.14,0,0,0,1.55.43,2.12,2.12,0,0,0,1.09,0,2.24,2.24,0,0,0,1.07-.33,2.18,2.18,0,0,0,.93-.59,3.24,3.24,0,0,0,1-1.23,8.93,8.93,0,0,0,.5-1.31c0-.34.06-.69.1-1a3,3,0,0,0-.25-.94,6.12,6.12,0,0,0-.11-.71h0c0,.2.07.4.1.61a7,7,0,0,1,0-1,4.28,4.28,0,0,0,.11-1.07c0-.24,0-.48,0-.73s-.1-.61-.16-.91Z" fill="#fff"></path><path d="M588.56,245.54c0-.16,0-.32-.08-.48s-.1-.41-.15-.62-.07-.2-.1-.29a1.42,1.42,0,0,1-.05-.16l-.49-1.06a3.23,3.23,0,0,0-.85-1A4.06,4.06,0,0,0,585,241a4,4,0,0,0-2.12.07,4.09,4.09,0,0,0-2.22,1.46,8,8,0,0,0-.88,1.3c0,.12-.11.24-.16.37l-.09.21a5,5,0,0,0-.56,2.43.62.62,0,0,1,0,.13c0,.31,0,.63,0,.94a8,8,0,0,0,.33,2.25,5.07,5.07,0,0,0,3.64,3.38,5,5,0,0,0,4.8-1.5,6.75,6.75,0,0,0,1.42-2.65.93.93,0,0,1,0-.13,8.16,8.16,0,0,0,.12-1.3c-.07-.44-.14-.87-.22-1.3A4.79,4.79,0,0,0,588.56,245.54Z" fill="#fff"></path><path d="M500.11,238.58l-.18-.22a3.46,3.46,0,0,0-1.26-1.26,3.55,3.55,0,0,0-1.59-.75,3.37,3.37,0,0,0-1.81,0,3.55,3.55,0,0,0-1.74.62l-.92.78a4.59,4.59,0,0,0-1.09,2.08L491.4,241a4.81,4.81,0,0,0,.73,2.36c.05.08.09.17.13.25a3.51,3.51,0,0,0,1.27,1.27,4.81,4.81,0,0,0,5.17.14l.93-.78a4.83,4.83,0,0,0,1.1-2.1l.12-1.2A4.76,4.76,0,0,0,500.11,238.58Z" fill="#fabd62"></path><path d="M472,270.61a3.44,3.44,0,0,0-1.33-1.21l-.84-.32a3.52,3.52,0,0,0-1.85.07,2.76,2.76,0,0,0-1.21.69,2.65,2.65,0,0,0-.86,1,2.52,2.52,0,0,0-.36,1.3,2.64,2.64,0,0,0,.11,1.39c.13.28.27.57.4.86a3.52,3.52,0,0,0,1.33,1.21l.85.32a3.49,3.49,0,0,0,1.84-.07,2.68,2.68,0,0,0,1.21-.7,2.73,2.73,0,0,0,.87-1,4,4,0,0,0,.24-2.69C472.27,271.18,472.13,270.9,472,270.61Z" fill="#fabd62"></path><path d="M522.66,361.52c-7.13-18.27-16.1-35.51-28.25-50.94-3.19-4.05-11.27-1.45-9,4.18,6.35,15.47,12.77,31,18.44,46.72,5.76,16,9.7,32.32,13.31,48.89,1.46,6.68,1.39,17.91,10.4,18.79,3.93.38,7.32-2.36,9.07-5.7,2.23-4.24,1.06-9.39.28-13.84C534.05,393.11,528.74,377.11,522.66,361.52Z" fill="#fff"></path><path d="M543.39,443.32a16.59,16.59,0,0,0-2-3.15,8.54,8.54,0,0,0-6.79-3.08,6.36,6.36,0,0,0-3.85,1.1,11,11,0,0,0-3.06,3.28,10.22,10.22,0,0,0-1,5.37c0,.6,0,1.21,0,1.82a14.18,14.18,0,0,0,.36,2.66c0,.25.08.51.11.76A10.65,10.65,0,0,0,528.6,457c.18.26.37.5.56.76a8.84,8.84,0,0,0,7.55,4,8.73,8.73,0,0,0,7.37-4.62,10.47,10.47,0,0,0,1.46-5.39c0-.44-.08-.88-.14-1.32-.18-1.25-.4-2.5-.63-3.75A12.35,12.35,0,0,0,543.39,443.32Z" fill="#fff"></path><path d="M553.13,303.91a7.45,7.45,0,0,0,.19-2.7c0-.15,0-.31,0-.47a8,8,0,0,0-.32-2.56,6.23,6.23,0,0,0-1.62-2.82,6.16,6.16,0,0,0-2.41-2,8.2,8.2,0,0,0-4.09-.94,23.71,23.71,0,0,0-2.5.42l-.3.07a15.2,15.2,0,0,0-2.72,1.25,9.18,9.18,0,0,0-3.19,3.5,22.59,22.59,0,0,0-.86,2.33,2.62,2.62,0,0,0-.09.38,24.08,24.08,0,0,0-.27,2.68,2.94,2.94,0,0,0,0,.42,6.82,6.82,0,0,0,.92,3.49,6.67,6.67,0,0,0,2,2.9l1.89,1.33a6.74,6.74,0,0,0,3.34.92,4.54,4.54,0,0,0,2.37-.09,6.85,6.85,0,0,0,3.4-1.23l1.8-1.51a9,9,0,0,0,2.13-4.07l0-.07c0-.13,0-.26,0-.4s.05-.22.08-.34S553.09,304.08,553.13,303.91Z" fill="#fff"></path><path d="M599.63,333.38a3.26,3.26,0,0,1-.22-.34,4.52,4.52,0,0,0-1-1.45c-.16-.12-.32-.24-.5-.35a3.31,3.31,0,0,0-1.58-.73l-.05,0-.09,0,.78.29a2.75,2.75,0,0,0-1.34-.37,2.88,2.88,0,0,0-1.51.12,7.26,7.26,0,0,0-1.14.55l-.07.05a4.5,4.5,0,0,0-1.55,1.69l-.4,1.08a4.42,4.42,0,0,0,.08,2.42,8.43,8.43,0,0,0,.69,1.53,2.57,2.57,0,0,0,.29.44,3.45,3.45,0,0,0,1.23,1.23,3.41,3.41,0,0,0,1.56.73,3.32,3.32,0,0,0,1.77,0,3.45,3.45,0,0,0,1.7-.62l.89-.75a4.57,4.57,0,0,0,1.07-2c0-.39.08-.78.11-1.16A4.57,4.57,0,0,0,599.63,333.38Z" fill="#fff"></path><path d="M642.68,270.77l-.24-.29-1.07-1.27-1.34-.94,0,0-1.52-.57c.54.15-1.16-.14-1.7-.16h-.15a2.28,2.28,0,0,0-.73.12,4.06,4.06,0,0,0-2,.73l-.17.11-.05,0c-.13.08-1.17.95-1.28,1.07l-.92,1.33a.21.21,0,0,0,0,.06l-.57,1.53,0,.12a5.79,5.79,0,0,0-.16,1.13,3.24,3.24,0,0,0,.06,1.72,2.49,2.49,0,0,0,.16.91c0,.06,0,.12.07.17s.08.23.11.34a9.43,9.43,0,0,0,.41.91,3.28,3.28,0,0,0,.91,1.43,5.35,5.35,0,0,0,.58.68,6.36,6.36,0,0,0,2.88,1.51,4.72,4.72,0,0,0,2.5,0,4.79,4.79,0,0,0,2.4-.87,6.41,6.41,0,0,0,2.21-2.41l0-.06.57-1.55a13.11,13.11,0,0,0,.18-1.8c0-.14,0-.27,0-.4v-.18c-.1-.59-.2-1.17-.29-1.75A5,5,0,0,0,642.68,270.77Z" fill="#fff"></path><path d="M646.38,361.63l-1.35-.94-.07,0-.14-.07a3.59,3.59,0,0,0-.34-.17,4.27,4.27,0,0,0-2.1-.59,4.32,4.32,0,0,0-2.25.19l-1.4.64a5.76,5.76,0,0,0-2,2.16l-.38.58a6.34,6.34,0,0,0-.73,3.46c0,.17,0,.33.05.5s0,.62,0,.92v.23l.3,1.75a3.18,3.18,0,0,0,.4.88,11.19,11.19,0,0,0,.57,1.15,6.37,6.37,0,0,0,11-.48c.17-.37.31-.77.45-1.15a2.05,2.05,0,0,0,.3-.88c.06-.56.11-1.13.17-1.7-.05-.32-.11-.64-.16-1s-.11-.64-.17-1-.12-.63-.2-.94A6.76,6.76,0,0,0,646.38,361.63Z" fill="#fff"></path><path d="M588.22,420.07a2.9,2.9,0,0,0-.8-1.27,4.37,4.37,0,0,0-1.69-1.41,7.49,7.49,0,0,0-1.39-.52,5.65,5.65,0,0,0-3,.11h0a5.71,5.71,0,0,0-3.89,4.2l-.14,1.27c0,.1,0,.2,0,.31,0,.28,0,.57-.08.86a2.74,2.74,0,0,0,.06,1.5,2.35,2.35,0,0,0,.14.79,3.2,3.2,0,0,0,.33.73c.11.25.22.49.34.73l.05.11c0,.07.07.15.11.22a5.45,5.45,0,0,0,2,1.88,6.14,6.14,0,0,0,4.15.38,5.36,5.36,0,0,0,2.4-1.53,10.05,10.05,0,0,0,1.1-1.52,4.9,4.9,0,0,0,.61-1.91c0-.41.09-.82.13-1.23l.15-1.48A4.4,4.4,0,0,0,588.22,420.07Z" fill="#fff"></path><path d="M571.63,361c-.18-.38-.28-.62-.46-.94a5.4,5.4,0,0,0-.67-.93,4.22,4.22,0,0,0-1.69-1.41l-1.33-.49a5.42,5.42,0,0,0-2.88.1,6.31,6.31,0,0,0-3,2,6.68,6.68,0,0,0-1.6,3,7.29,7.29,0,0,0,.16,3.44c.07.32.15.64.23,1a5.76,5.76,0,0,0,4.74,4.23l-.67-.25a4,4,0,0,0,2.28.29,1.91,1.91,0,0,0,.7-.22l-.15.1a5.55,5.55,0,0,0,2.94-1.71l.85-1.21a13.79,13.79,0,0,0,.55-1.52c.08-.24.16-.49.25-.73s.15-.38.21-.57c.06-.53.11-1.07.16-1.6s-.18-1.09-.28-1.64A3.07,3.07,0,0,0,571.63,361Z" fill="#fff"></path><path d="M562.28,503.05l-.19-.23a4.81,4.81,0,0,0-1-1.36,5.14,5.14,0,0,0-2.27-1.2c-.11,0-.21,0-.32-.06a3.56,3.56,0,0,0-1.86,0,3.71,3.71,0,0,0-1.79.65l-.94.8a4.77,4.77,0,0,0-1.13,2.14l0,.29a4.93,4.93,0,0,0,.1,2.64,5,5,0,0,0,1.41,2.24l.51.42a3.75,3.75,0,0,0,1.61.93,3.66,3.66,0,0,0,1.85.34l1.29-.22a4.85,4.85,0,0,0,2.16-1.37.68.68,0,0,0,.12-.12c.24-.33.48-.67.71-1a3.53,3.53,0,0,0,.49-1.78,2.38,2.38,0,0,0,0-1.27A3.66,3.66,0,0,0,562.28,503.05Z" fill="#fff"></path><path d="M633.05,434.34c-.24-.53-.49-1.06-.74-1.59a6.28,6.28,0,0,0-2.42-2.21,4.75,4.75,0,0,0-2.36-.66,5,5,0,0,0-2.53.21,6.43,6.43,0,0,0-2.83,1.8,8.27,8.27,0,0,0-1,1.37,6.39,6.39,0,0,0-.73,3.21,10.36,10.36,0,0,0,.3,1.81,1.43,1.43,0,0,0,.09.27,7,7,0,0,0,1.87,3l.09.09a6.37,6.37,0,0,0,2.85,1.49,6.15,6.15,0,0,0,3.24-.12,4.7,4.7,0,0,0,2.12-1.22,4.75,4.75,0,0,0,1.53-1.82,6.27,6.27,0,0,0,.71-3.09v0A4.78,4.78,0,0,0,633.05,434.34Z" fill="#fff"></path><path d="M696.6,319.1a6,6,0,0,0-2.14-1.94,6.49,6.49,0,0,0-1.51-.65,4.86,4.86,0,0,0-2.51.09,4.74,4.74,0,0,0-2.11,1.35,6.3,6.3,0,0,0-.94,1.41,5.5,5.5,0,0,0-.39,4.38l.48,1.35a4,4,0,0,0,1,1.79,3.9,3.9,0,0,0,1.53,1.28l1.25.47a3.92,3.92,0,0,0,2,0,2.63,2.63,0,0,0,1.33-.41,4,4,0,0,0,1.67-1.17l.76-1.09a5.13,5.13,0,0,0,.6-2.6c-.08-.48-.15-1-.23-1.44s-.17-1-.26-1.53Z" fill="#fff"></path><path d="M684.49,415.3l-.27-.38c-.24-.3-.49-.59-.74-.88a3.38,3.38,0,0,0-1.44-.83l-.6-.22-.2-.07a4.21,4.21,0,0,0-2.2.08,4.15,4.15,0,0,0-1.86,1.18,4.24,4.24,0,0,0-.92,4.1l.06.2a.36.36,0,0,0,0,.09,3.23,3.23,0,0,0,.86,1.5,1.53,1.53,0,0,0,.39.45l.36.28a3.34,3.34,0,0,0,1.42.82,3.21,3.21,0,0,0,1.62.3l1.14-.19a3.3,3.3,0,0,0,1.47-.85,2.07,2.07,0,0,0,.74-.81,3.23,3.23,0,0,0,.7-1.48c0-.37.07-.74.11-1.11A4.34,4.34,0,0,0,684.49,415.3Z" fill="#fff"></path><path d="M730.59,430.26a19.85,19.85,0,0,0-2-.21h-.09a6.25,6.25,0,0,0-3.51,1l-.13.1-.06,0a18,18,0,0,0-1.56,1.33,7.66,7.66,0,0,0-1.66,7.45c.12.4.24.79.35,1.19l.09.28,0,.11a5.83,5.83,0,0,0,1.51,2.63,3.17,3.17,0,0,0,.72.82l1.6,1.12.21.12a8.17,8.17,0,0,0,5.61.51l1.79-.83a7.43,7.43,0,0,0,2.54-2.77l.12-.23c.22-.6.45-1.21.67-1.82,0,0,0-.07,0-.1a5.72,5.72,0,0,0,0-3,4.8,4.8,0,0,0-.21-1.13c0-.09-.06-.19-.08-.28l-.36-1.19A7.68,7.68,0,0,0,730.59,430.26Z" fill="#fff"></path><path d="M716.89,375.74c-.1-.23-.5-1.1-.62-1.32a.31.31,0,0,0,0-.1l-.06-.08-.9-1.06,0,0,0,0a5.4,5.4,0,0,0-2.41-1.27l-1.38-.14a5.38,5.38,0,0,0-2.73.85,4.09,4.09,0,0,0-1.46,1.46,4.17,4.17,0,0,0-.87,1.85,3.94,3.94,0,0,0,0,2.1,4,4,0,0,0,.72,2c.09.13.2.23.3.35a5.82,5.82,0,0,0,1,1.28,5.32,5.32,0,0,0,2.37,1.24h.06c.09,0,1.14.12,1.23.13h.08l.68-.12c-.58.1.51-.06.71-.12l1.29-.6,1-.88.78-1.11.47-1.26a4.36,4.36,0,0,0,.14-1.48.15.15,0,0,0,0-.07q0-.36-.12-.72l-.12-.73,0-.1Z" fill="#fff"></path><path d="M657,484a5.38,5.38,0,0,0-2.3-1.34,5.3,5.3,0,0,0-2.64-.48,7,7,0,0,0-3.55,1.1,7,7,0,0,0-3.2,6.1c.1.78.23,1.56.4,2.33.25.55.51,1.09.76,1.64s.76.89,1.13,1.34l1.42,1a5,5,0,0,0,2.49.69,3.39,3.39,0,0,0,1.76-.06,3.49,3.49,0,0,0,1.72-.54,3.32,3.32,0,0,0,1.49-1,5.12,5.12,0,0,0,.77-.7l0,.06,0-.07a5.27,5.27,0,0,0,.72-1,6.91,6.91,0,0,0-1-9.1Z" fill="#fff"></path><path d="M701,469.52l-.75-.88-.07-.06-.08-.08-.19-.18a2.72,2.72,0,0,0-1-.73l-1.09-.41a9.73,9.73,0,0,0-1.2-.11,4.47,4.47,0,0,0-2.28.71,5,5,0,0,0-2,2.77,4.47,4.47,0,0,0,.08,2.35,1.75,1.75,0,0,0,.27.59,3.35,3.35,0,0,0,1,1.44,6.41,6.41,0,0,0,1,.71l.2.12a4.63,4.63,0,0,0,1.27.51l1.15.11a3.4,3.4,0,0,0,1.72-.45l.56-.26a3.29,3.29,0,0,0,1.2-1.2,3.51,3.51,0,0,0,.72-1.52c0-.38.07-.76.11-1.14a1.35,1.35,0,0,0-.1-.62A3.41,3.41,0,0,0,701,469.52Z" fill="#fff"></path><path d="M670.52,552.67a.28.28,0,0,1,0-.09,4.65,4.65,0,0,0-.62-2.34,3,3,0,0,0-.85-1.34,4.58,4.58,0,0,0-1.77-1.49l-1.46-.54-1.56-.15a6.75,6.75,0,0,0-4.28,2,12,12,0,0,0-1.76,2.74,7.33,7.33,0,0,0-.83,4c.21,1.31.37,3,1.24,4.07l1.09,1.28,1.36,1,1.55.57a4.76,4.76,0,0,0,2.54,0,6.44,6.44,0,0,0,4.19-2.64,5,5,0,0,0,1.06-2.24,2,2,0,0,0,.1-.91,3.55,3.55,0,0,0,.09-.92v0a6.29,6.29,0,0,0-.06-2A4.73,4.73,0,0,1,670.52,552.67Z" fill="#fff"></path><path d="M614.76,539.61a3.36,3.36,0,0,0-1.33-1.12l-1.1-.41a4.62,4.62,0,0,0-2.39.09h0a5.05,5.05,0,0,0-2.71,2.25l-.41,1.1a4.55,4.55,0,0,0,.1,2.4l.15.61a3,3,0,0,0,.79,1.37,3,3,0,0,0,1.17,1l1,.35a3.94,3.94,0,0,0,2.1-.07l.58-.22a3.5,3.5,0,0,0,1.57-.91,3.31,3.31,0,0,0,1.13-1.35c.14-.36.27-.73.41-1.1a4.66,4.66,0,0,0-.09-2.4v0A3.36,3.36,0,0,0,614.76,539.61Z" fill="#fff"></path><path d="M584.43,573.72a5.78,5.78,0,0,0-2.22-2,5.9,5.9,0,0,0-5.94.25l-.23.17a6.75,6.75,0,0,0-.65.55,3.44,3.44,0,0,0-.65.55l-.9,1.29-.05.09c-.1.21-.19.43-.28.65-.18.49-.37,1-.55,1.49,0,.28-.07.57-.09.86a4.72,4.72,0,0,0,.2,2.44l.7,1.51,1,1.23,0,0,.06.05.08.06,1.21.84a4.31,4.31,0,0,0,2.12.59,2.94,2.94,0,0,0,1.5-.06l-.68.12a9.31,9.31,0,0,0,1.7-.29,6.25,6.25,0,0,0,2.74-1.74l.91-1.3a7,7,0,0,0,.66-1.91l.06-.23a4.78,4.78,0,0,0,.14-1,3.76,3.76,0,0,0,0-1,2,2,0,0,1,0-.25A6.05,6.05,0,0,0,584.43,573.72Z" fill="#fff"></path><path d="M473.9,251.56a30.4,30.4,0,0,1-8.94-7.29c-2.76-3.29-3.79-7.06-6-10.61a3.64,3.64,0,0,0-4.59-1.16,1.88,1.88,0,0,0-2.85.13c-8.81,9.75-24.59,7.07-28.62-5.84a2.86,2.86,0,0,0-4.05-1.86c-14.56,7.38-30.39,14.21-47.1,11.88-8-1.11-15.6-4.54-20.79-10.86a31.17,31.17,0,0,1-5.1-8.55c-1.13-3-1.14-6.25-2.65-9.06a3.94,3.94,0,0,0-6.79-.19c-2.19.21-4.18,1.76-6.37,2.6A29.93,29.93,0,0,1,318,213c-7.54-.34-14.54-5-15.72-12.75a3.34,3.34,0,0,0-4.78-2.19c-13.74,8.77-32,12.56-47,4.47-13.46-7.27-21.5-23.62-17.06-38.54.85-2.88-1.61-4.81-3.91-4.72a39,39,0,0,0-3.61-4,32.46,32.46,0,0,1-6.9-14.29c-1.92-9.73,2.42-21.83,13-24.06a3.65,3.65,0,0,0,2.39-5.21c-6.55-12.17-7.07-27.82,3.44-38,11.56-11.21,25.69-5.12,38.64-.59a3,3,0,0,0,3.32-.89,3.24,3.24,0,0,0,1.39.37c2.62,0,3.45-2.34,3.71-4.59.44-3.84.5-7.69,2.81-11,5.49-7.86,17.21-6.78,23.16-.28,1.77,1.93,4.38.91,5.33-1.19,2.9-6.36,6.81-12.74,12.54-16.93,7.09-5.17,15.65-4.68,23.59-1.87a57,57,0,0,1,19.65,12c5.17,4.81,8.74,10.32,12.47,16.13a1,1,0,0,0-.22.87,7.13,7.13,0,0,0,1.21,2.21,3.11,3.11,0,0,0,2.95.92c7-1,12.93-8.27,18.91-11.79,7.75-4.57,16.22-6.31,25.06-4.34C449,56.4,461.89,70.2,470.67,84c4.39,6.91,6,13.31,6.89,21.29.79,7,4.93,8.57,11.22,7.47,8.19-1.43,16.65.75,21.91,7.63a21.82,21.82,0,0,1,2,22.49c-.85,1.75-.12,4.82,2.41,4.58,8.42-.78,17,3.33,20.33,11.4a19.92,19.92,0,0,1,.85,12.09c-.82,3.65-2.86,6.77-3.63,10.42-.13.66.37,1.44,1.13,1.21l.14,0c4,4.79,7.16,9.86,5.77,16.45-1.32,6.23-6.58,10.72-12.63,12a3.13,3.13,0,0,0-2,4.44c3.47,8.4-2,17.62-7.49,23.77a48.37,48.37,0,0,1-19.49,13.57C490.18,255.61,481.4,255.58,473.9,251.56Z" fill="#fff"></path><path d="M131.49,468.67a2.7,2.7,0,0,0,1.39-1.88,18.92,18.92,0,0,0,.33-1.9c.94-6.73,6.71-15.06,9.43-21.37q13.43-31.23,25.35-63.11c25.1-67.11,46.21-135.77,66.24-204.55a42.31,42.31,0,0,0,18.52,21.77c16.06,9,35.85,6.81,51.3-2.29a22.49,22.49,0,0,0,16.49,12.2,31.21,31.21,0,0,0,14.79-1.26,45.49,45.49,0,0,0,6.8-2.46c.69,6.17,5.11,12.89,8.86,16.64a43.12,43.12,0,0,0,22.25,11.72c18.38,3.64,36.11-3.35,52.26-11.56,6.53,13,24,16.75,34.68,6,1.84,8.79,10.43,16.79,18,20.49a34.71,34.71,0,0,0,14.18,3.47c-3,6.59-6,13.18-8.84,19.85C455.7,336.2,429.45,403,411.75,472.3A693.34,693.34,0,0,0,393,576.07c-.85,8.7-1.23,17.44-2.07,26.14-.81,8.34-3,16.31-9.35,22.15-10.6,9.77-26.51,11.53-40.29,11.28-18-.33-35.78-4-53.23-8.25a515.78,515.78,0,0,1-51.68-15.33A504.88,504.88,0,0,1,185.8,591c-15.4-7.44-31.12-15.23-44.87-25.49-12.27-9.14-23.06-21.58-26.29-36.91-3.58-17,4.49-33.29,11.53-48.26C128,476.47,129.71,472.56,131.49,468.67Z" fill="#3f3d56"></path><path d="M111.76,171c3.19-5.47,7.18-10.76,12.77-14,6.32-3.61,13.61-3.12,20.46-1.54,15.32,3.55,30.25,8.8,45.56,12.47,11.76,2.83,31.18,9.71,43.54,8.72q-3.45,11.25-6.84,22.53-2.92,9.66-5.87,19.32c-9.26-6.67-26.8-13.59-37.69-16.61-9.9-2.74-22.24-7.39-32.56-4.67-9.61,2.53-16.5,10.55-20.71,19.18-5.4,11.07-8.56,23.46-12.43,35.12-3.7,11.17-7.17,22.41-10.75,33.62-3,9.33-6.16,18.65-8.1,28.26-1.82,9-2.61,18.18-1,27.27,1.72,9.89,6.95,18.19,12.66,26.25a219,219,0,0,0,18.39,23.33c5.78,6.18,18.57,19.6,26.48,23.22-.78,2-1.53,3.94-2.32,5.9-5.45,13.5-11.19,26.88-17.09,40.19a46.78,46.78,0,0,0-3-4.62c-4.85-6.73-16.14-19.86-21.44-26.25q-18-21.68-36.26-43.11C66.38,374.8,57.33,363.44,55.34,349c-1.93-14,1.92-28.24,5.55-41.64a816.22,816.22,0,0,1,31.86-94.19C98.51,199,104,184.18,111.76,171Z" fill="#555555" data-secondary="true"></path><path d="M126.17,480.34c1.82-3.87,3.54-7.78,5.32-11.67a2.7,2.7,0,0,0,1.39-1.88,18.92,18.92,0,0,0,.33-1.9c.94-6.73,6.71-15.06,9.43-21.37q13.43-31.23,25.35-63.11c25.1-67.11,46.21-135.77,66.24-204.55a42.31,42.31,0,0,0,18.52,21.77A47,47,0,0,0,281.47,203c-26.12,40.11-40.1,88.18-38.68,136.06,1.85,61.94,29.34,122.73,74.65,165,14.12,13.18,30.12,24.74,48.27,31.35,10.19,3.71,20.81,5.78,31.51,7.59-1.68,11-3.11,22-4.19,33-.85,8.7-1.23,17.44-2.07,26.14-.81,8.34-3,16.31-9.35,22.15-10.6,9.77-26.51,11.53-40.29,11.28-18-.33-35.78-4-53.23-8.25a515.78,515.78,0,0,1-51.68-15.33A504.88,504.88,0,0,1,185.8,591c-15.4-7.44-31.12-15.23-44.87-25.49-12.27-9.14-23.06-21.58-26.29-36.91C111.06,511.59,119.13,495.31,126.17,480.34Z" fill="#555555" data-secondary="true"></path><path d="M478.17,247.13c-7.56-3.7-16.15-11.7-18-20.49-10.72,10.73-28.15,7-34.68-6-16.15,8.21-33.88,15.2-52.26,11.56A43.12,43.12,0,0,1,351,220.46c-3.75-3.75-8.17-10.47-8.86-16.64a45.49,45.49,0,0,1-6.8,2.46,31.21,31.21,0,0,1-14.79,1.26,22.49,22.49,0,0,1-16.49-12.2A58.11,58.11,0,0,1,281.47,203h-.14c-.59.07-1.18.13-1.77.17h-.07l-1.85.11h-.26c-.9,0-1.8,0-2.69,0-.57,0-1.14,0-1.71-.07l-1.35-.08c-.62-.05-1.23-.09-1.84-.16l-.53-.07c-.67-.09-1.33-.18-2-.29l-1-.17h-.05c-.75-.15-1.49-.31-2.23-.49h0l-.52-.13c-.44-.11-.87-.23-1.31-.36s-.86-.25-1.29-.39l-.6-.2-.06,0c-1.06-.36-2.12-.76-3.16-1.21h0l-1-.43h0l-1.38-.67c-.62-.31-1.24-.63-1.85-1s-1.44-.86-2.13-1.32l-.77-.53c-.53-.37-1.07-.75-1.59-1.14h0c-1-.78-2-1.63-2.94-2.5-.17-.15-.35-.27-.51-.42h0q-.79,3.2-1.62,6.42-.64,2.5-1.32,5l-.36,1.39q-.66,2.47-1.34,5c-.13.47-.25.94-.38,1.42v0q-.82,3-1.68,6C201,349.35,129.81,495.29,131.43,510.53c1.78,16.82,36.85,45.43,93.89,67,56.22,21.22,149.41,40.25,150.14,8.92,0-.58,0-1.18.06-1.79l0-.57c0-.46.05-.93.08-1.41,0-.2,0-.39,0-.58,0-.6.08-1.21.13-1.83,0-.08,0-.15,0-.22q.09-1.12.21-2.31a1.11,1.11,0,0,1,0-.17c.07-.74.15-1.49.23-2.25l0-.3c1.05-9.47,3-21.44,5.58-34.91h0c7.88-41.16,21.63-96.37,33.67-137.25,13.81-46.85,38.61-94.25,56.46-131,.14-.28.27-.57.41-.85.59-1.22,1.18-2.43,1.75-3.62.23-.47.46-.94.68-1.41.49-1,1-2,1.44-3l.74-1.56,1.31-2.78.72-1.55,1.3-2.82c.2-.45.41-.9.61-1.34.62-1.35,1.22-2.69,1.79-4A34.91,34.91,0,0,1,478.17,247.13Z" fill="#CDF3E1" data-primary="true"></path><path d="M441.13,171.53l.2.08-.18-.07Z" fill="#e1e1e1"></path><path d="M232.07,116.9a3.65,3.65,0,0,0,2.39-5.21c-6.55-12.17-7.07-27.82,3.44-38a21.35,21.35,0,0,1,12.19-6.1c-3.29,8-6.2,16.17-6.44,24.78-.37,13.75,9.93,29.23,23.6,27.67a25.36,25.36,0,0,0,37.69,24.28,25.54,25.54,0,0,1-7.88-7.05,40.18,40.18,0,0,1-3.53-5.74c-1.11-2.19-2.61-4.7-2.56-7.2.07-3.33,4.08-4.41,6.27-2.32,1.35,1.28,1.86,3.23,2.63,4.88s1.54,3.11,2.42,4.61a22,22,0,0,0,6.4,7.16,11.8,11.8,0,0,0,8,2.29,10.14,10.14,0,0,0,4.23-1.54,20.41,20.41,0,0,1-3.56-3,13.06,13.06,0,0,1-2.71-3.78,5.06,5.06,0,0,1-.24-3.19c.08-.32.33-.62.38-.94,0,.17-.09-.7-.09-.64a.74.74,0,0,1,1.13-.6,4.87,4.87,0,0,1,.49.35c.09,0,.32,0,.36,0a5.16,5.16,0,0,1,2.16.71,11.66,11.66,0,0,1,2.88,3.06,15.53,15.53,0,0,0,5.09,4.42c-.21-.1.52.21.51.2.25.09.5.18.75.25.41.13,1,.27,1.1.28a12.08,12.08,0,0,0,2.92.18,24,24,0,0,0,2.76-.55c.89-.2,2.21-.32,2.55.77.78,2.49-3.18,4.3-5,4.76a13.24,13.24,0,0,1-6.9-.18,13,13,0,0,1-6.82,4.65,16,16,0,0,1-8.05.3c3.09,14.78,14.14,27.82,28.44,32.86a45,45,0,0,0,46.86-11.57,40.75,40.75,0,0,0,63.25,27.13,18.26,18.26,0,0,1-8.52-5.27c-2.76-3.13-5.23-8.43-3-12.35a15,15,0,0,1-4-2.53c-1.42-1.28-3-3.09-3.18-5a3.92,3.92,0,0,1,1.09-3.32,3.3,3.3,0,0,1,3.94-.05,5.15,5.15,0,0,1,1.19,1,8.9,8.9,0,0,1,.63.85l0,.07a12.75,12.75,0,0,0,1.51,1.69l.34.31c.31.22.61.46.94.67s.59.34.89.52l.07,0-.09,0,.11,0,.18.07.26.1a9.86,9.86,0,0,0,1.28.38l.29.06.46.06a19.11,19.11,0,0,0,2.51,0l.28,0,.41-.07c.44-.07.86-.2,1.29-.29.84-.18,1.76-.34,2.52-.45a1.9,1.9,0,0,1,2,2.83c-1.39,2.58-4.33,3.84-7.2,4.24a10.93,10.93,0,0,1,.25,1.95c0,.13.22,1.31,0,.52.06.27.13.55.19.82a8.3,8.3,0,0,0,1.67,2.81,16,16,0,0,0,6.45,4.1,15,15,0,0,0,7.75.67c3.06-.55,5.37-2,8.09-3.34,1.93-.91,4.28,1.28,2.93,3.19-2.16,3.07-6.15,4.86-9.7,5.83a26.54,26.54,0,0,1-5.71.88c2.67,6.93,6.18,13.58,12.41,17.33,7.46,4.5,17.21,3.59,25.08-.14s14.28-9.9,20.53-16c5.93,7.48,18.75,6.14,24.62-.82a15.54,15.54,0,0,1-.31,2.73c-1.32,6.23-6.58,10.72-12.63,12a3.13,3.13,0,0,0-2,4.44c3.47,8.4-2,17.62-7.49,23.77a48.37,48.37,0,0,1-19.49,13.57c-7.9,2.81-16.68,2.78-24.18-1.24a30.4,30.4,0,0,1-8.94-7.29c-2.76-3.29-3.79-7.06-6-10.61a3.64,3.64,0,0,0-4.59-1.16,1.88,1.88,0,0,0-2.85.13c-8.81,9.75-24.59,7.07-28.62-5.84a2.86,2.86,0,0,0-4.05-1.86c-14.56,7.38-30.39,14.21-47.1,11.88-8-1.11-15.6-4.54-20.79-10.86a31.17,31.17,0,0,1-5.1-8.55c-1.13-3-1.14-6.25-2.65-9.06a3.94,3.94,0,0,0-6.79-.19c-2.19.21-4.18,1.76-6.37,2.6A29.93,29.93,0,0,1,318,213c-7.54-.34-14.54-5-15.72-12.75a3.34,3.34,0,0,0-4.78-2.19c-13.74,8.77-32,12.56-47,4.47-13.46-7.27-21.5-23.62-17.06-38.54.85-2.88-1.61-4.81-3.91-4.72a39,39,0,0,0-3.61-4,32.46,32.46,0,0,1-6.9-14.29C217.13,131.23,221.47,119.13,232.07,116.9Z" fill="#e1e1e1"></path><path d="M402.87,64.54a20.27,20.27,0,0,1,15.23-.73,5.45,5.45,0,0,1,1.75-1c4.67-1.61,9.34-3.14,14.41-3.34a34.92,34.92,0,0,1,15,2.82,33.13,33.13,0,0,1,12.55,9.11c3.62,4.4,8,10.74,6.93,16.66-.4,2.27-3.53,3-5.23,1.9-2.33-1.54-3.41-3.79-4.71-6.16a34.15,34.15,0,0,0-4.33-6.27,24.17,24.17,0,0,0-10.1-6.81,26.21,26.21,0,0,0-11.71-1.42,23.94,23.94,0,0,0-6.13,1.52h0c1.4,2.29,2.45,5,1.86,7.72a2.59,2.59,0,0,1-3.85,1.4,16.88,16.88,0,0,1-2.13-2.18c-.33-.41-.67-.82-1-1.2l-.51-.51-.27-.25-.3-.24-.57-.41c-.39-.27-.8-.51-1.2-.77s-.8-.53-1.22-.76c-.18-.11-.37-.2-.56-.3l-.1,0c-.93-.33-1.86-.61-2.8-.86l-.22-.07-.34,0a14.68,14.68,0,0,0-1.48-.08,9.42,9.42,0,0,0-1.18,0,2.49,2.49,0,0,1-.34.08l-.72.14c-.48.11-.94.27-1.42.38l-.73.33a5,5,0,0,1-6.59-2.05C399.75,68.87,400.38,65.65,402.87,64.54Z" fill="#fdffff"></path><path d="M505.62,130.71c-.08-.06-.12-.15-.2-.21C505.5,130.56,505.9,130.91,505.62,130.71Z" fill="#fdffff"></path><path d="M501.48,124.84l-.13-.12,0,0S501.44,124.81,501.48,124.84Z" fill="#fdffff"></path><path d="M491.58,115.16c.05,0,.11,0,.16.09a4.21,4.21,0,0,1,1.33-.75,5.29,5.29,0,0,1,2.52-.67c.48,0,1,.07,1.46.12,1.46.17,2.92.37,4.36.63A13,13,0,0,1,508,118a10.91,10.91,0,0,1,3.25,5.86c.48,2.64-.16,5.79-2.69,7.14a2.7,2.7,0,0,1-3.13-.55,4.41,4.41,0,0,1-.94-1c-.18-.27-.33-.55-.49-.83s-.17-.29-.24-.44c-.16-.31-.07-.21,0-.05-.24-.44-.6-.9-.83-1.31a2.43,2.43,0,0,0-.15-.26c.15.22.35.47.09.11s-.48-.68-.71-1-.37-.48-.58-.69l-.12-.12c.21.16.38.25-.05-.06a.1.1,0,0,0-.05,0,.81.81,0,0,1-.16-.16.83.83,0,0,0,.13.14c-.23-.16-.47-.3-.71-.45l-.18-.07-.66-.19-.1,0-.42-.06-.73-.07a22.35,22.35,0,0,1-3.82-.52,5.94,5.94,0,0,1-2.33-1.16,4,4,0,0,1-.95-1.07s-.06-.1-.1-.14h0a3.79,3.79,0,0,1-.94-3.43,1.26,1.26,0,0,1,0-.28,2.21,2.21,0,0,1,.35-1.14c-.11.6-.1-.37-.1-.48A.62.62,0,0,1,491.58,115.16Z" fill="#fdffff"></path><path d="M502.8,126.57a.79.79,0,0,1-.12-.2A.71.71,0,0,0,502.8,126.57Z" fill="#fdffff"></path><polygon points="505.41 130.49 505.42 130.49 505.43 130.5 505.41 130.49" fill="#fdffff"></polygon><path d="M314.36,68a15.66,15.66,0,0,1,7.95-3.9l.31,0a13.91,13.91,0,0,1,1.91-4.55,21.91,21.91,0,0,1,4.09-4.86,21.8,21.8,0,0,1,24.1-3.45c3.75,1.76,8,4.8,8.75,9.16a2.84,2.84,0,0,1-4.24,3,32.69,32.69,0,0,1-3.79-2.64,17.78,17.78,0,0,0-3.59-2.07,13,13,0,0,0-8-.75c-.35.08-.69.17-1,.27l-.48.15a14.62,14.62,0,0,0-2.15,1c-.31.17-.61.36-.91.55l-.09,0-.15.12a22,22,0,0,0-1.91,1.69l-.73.78c-.08.08-.15.17-.21.24-.45.61-.89,1.21-1.28,1.86l-.14.25c2.17.84,4.36,2.26,5.29,4.29.66,1.45-.29,3.46-2.07,3.3a20.85,20.85,0,0,1-3.4-.75l-.75-.17h-.05l-.87-.15-.4-.08-.51-.06c-.51-.05-1-.08-1.54-.08q-.46,0-.93,0h-.11c-.5.11-1,.16-1.51.29l-.4.12-.47.23a14.51,14.51,0,0,0-1.28.72l-.05,0s-.36.27-.45.34c-.79.64-1.61,1.29-2.34,2l-.51.53c-.28.38-.56.76-.82,1.16s-.47.87-.72,1.29a6.93,6.93,0,0,1-2.52,2.41c-2.44,1.53-5.91-.29-6.46-3C309.13,73.77,311.83,70.37,314.36,68Z" fill="#fdffff"></path><path d="M259.26,95.39a6.33,6.33,0,0,0,.6,4.59,15.56,15.56,0,0,0,1.74,2.58,13.69,13.69,0,0,0,5.06,3.57,12,12,0,0,0,5.31,1.09,8.71,8.71,0,0,0,3.39-.66,3.94,3.94,0,0,0,2.51-2.28,1.83,1.83,0,0,0-1-2.54,3.61,3.61,0,0,0-1.61-.53c-.18,0-.52-.21-.19,0s0,0-.16,0c-.5-.12-1-.2-1.52-.27l.07,0a2.46,2.46,0,0,0-.47-.1,16.41,16.41,0,0,1-1.91-.63l-.38-.15c-.25-.14-.51-.27-.75-.42s-.6-.39-.89-.6l-.17-.14a17,17,0,0,1-1.42-1.52l-.15-.19c-.15-.25-.3-.49-.43-.75A9.44,9.44,0,0,0,265.32,94C263.58,92.23,259.87,92.62,259.26,95.39Z" fill="#e1e1e1"></path><path d="M273.35,100.89h0C273,100.85,272.84,100.68,273.35,100.89Z" fill="#e1e1e1"></path><path d="M385.91,120.6c1.78,2.24,2.3,5.22,3.93,7.6a16.15,16.15,0,0,0,5.87,5.11,17.21,17.21,0,0,0,8.33,1.93c3.27-.07,6.09-1.7,9.24-2.09a2,2,0,0,1,1.77,3.35c-2.52,2.57-7,3.92-10.46,4.38a22.13,22.13,0,0,1-11.71-1.5,22.64,22.64,0,0,1-8.73-6.58c-2.37-3-4.73-7-3.92-10.93C380.74,119.43,384.41,118.71,385.91,120.6Z" fill="#e1e1e1"></path><path d="M498.22,173.94c.81.38-.4,0,.2.18.25.07.56.06.83.15a9.33,9.33,0,0,1,1.57.6,8.49,8.49,0,0,1,2.63,2.4,19.48,19.48,0,0,0,1.93,2.06,12.68,12.68,0,0,0,1.12.82c.23.15.45.29.69.42l.34.16.36.14.48.16c.2.06.4.1.61.15.06,0,.07,0,.06,0h.11c.42.05.83.07,1.25.08H511l.29,0a8.11,8.11,0,0,0,1.11-.24c.24-.08.32-.15.76-.33a12.59,12.59,0,0,1,2.24-.89,1.46,1.46,0,0,1,1.76,1.44c.21,2.47-2.48,4-4.49,4.7a11.15,11.15,0,0,1-6.62-.05,15.89,15.89,0,0,1-6.48-4.22,8.3,8.3,0,0,1-2.44-3.88,7.17,7.17,0,0,1-.09-2,4.61,4.61,0,0,1,.15-.84c.12-.27.11-.25,0,.06,0-.17,0-.35,0-.53C497.11,173.91,497.78,173.74,498.22,173.94Z" fill="#e1e1e1"></path><path d="M523.34,151.57a.56.56,0,0,0,.21.94l.19.06a2.85,2.85,0,0,0,1,1.39,2.48,2.48,0,0,0,.26.4,3.72,3.72,0,0,0,1.17.83,7.79,7.79,0,0,1,.85.56,7,7,0,0,1,.52.57,5.1,5.1,0,0,1,.48.89l-.24-.63h0a6,6,0,0,0,.49,1.27,4.37,4.37,0,0,1,.33.69c-.07-.19-.13-.37-.2-.55l.07-.12a2.56,2.56,0,0,0,.81,1.53,2.62,2.62,0,0,0,2.28.57,2.69,2.69,0,0,0,1.92-1.79,4.78,4.78,0,0,0,.12-3.33,9.7,9.7,0,0,0-1.59-3A9.41,9.41,0,0,0,530,150a7.15,7.15,0,0,0-1.59-.79,3,3,0,0,0-2.11,0,3.27,3.27,0,0,0-1.14.27,2.66,2.66,0,0,0-1.05.92c-.35.68-.41.83-.19.48l0,0c-.05.06-.27.33-.12.18C523.59,151.31,523.46,151.43,523.34,151.57Z" fill="#fdffff"></path><path d="M446.86,252.79c0,.39.08.77.11,1.15a5.08,5.08,0,0,0,1.94,2.76,6.72,6.72,0,0,0,1.91.77c.27.07.52.1.8.15a2.5,2.5,0,0,0,1.3.05l.76-.08.45,0,2-.23a5.21,5.21,0,0,0,2.29-1.2,5.1,5.1,0,0,0,.32-7.19,3,3,0,0,0-.62-.58,1.49,1.49,0,0,0-.59-.47l-1.23-.57-.24-.07a.42.42,0,0,0,0-.1,3.5,3.5,0,0,0-5.41-.95,10.88,10.88,0,0,0-1.34,1.62,10,10,0,0,0-.77,1.53l0,0c.08-.17.16-.33.23-.5-.08.17-.21.33-.3.49a4.05,4.05,0,0,0-.21.35,3.69,3.69,0,0,0-.5.61,1,1,0,0,1-.14.21A4.46,4.46,0,0,0,446.86,252.79Z" fill="#fff"></path><path d="M424.4,259.53a3.46,3.46,0,0,1,1.25-1.24,3.36,3.36,0,0,1,1.58-.75l1.19-.12a4.67,4.67,0,0,1,2.34.73l.91.77a4.51,4.51,0,0,1,1.08,2.06,5.07,5.07,0,0,1,.12,1.35c0,.21-.06.42-.1.63s-.07.42-.11.63l0,.1a3.4,3.4,0,0,1-.9,1.56,4.74,4.74,0,0,1-4.83,1.45l-1.11-.52a4.66,4.66,0,0,1-1.58-1.72l-.4-1.1a4.23,4.23,0,0,1-.05-.5,5,5,0,0,1,.64-3.33Z" fill="#fff"></path><path d="M380,243.63a3.94,3.94,0,0,1,1.54-1.41l1-.37a4.06,4.06,0,0,1,2.13.08,3.08,3.08,0,0,1,1.4.81,3,3,0,0,1,1,1.19,3.14,3.14,0,0,1,.41,1.51,3.05,3.05,0,0,1-.13,1.61l-.46,1a4,4,0,0,1-1.54,1.41l-1,.37a4.2,4.2,0,0,1-2.14-.08,3.14,3.14,0,0,1-1.4-.81,3.73,3.73,0,0,1-1.42-2.7,3.16,3.16,0,0,1,.13-1.61Z" fill="#fff"></path><path d="M358.19,252.63c-.15.31-.29.61-.43.92a8.19,8.19,0,0,1,2-3.45,3.75,3.75,0,0,1,3.84-.78,8.61,8.61,0,0,1,1.28.57,6.83,6.83,0,0,1,1.53,1.19,7,7,0,0,1,1.81,3.33,6.85,6.85,0,0,1,.2,1.86,5.66,5.66,0,0,1-.86,2.51,2.15,2.15,0,0,1-.52.64,2.45,2.45,0,0,1-.35,1.12,3.56,3.56,0,0,1-1.07,1.53,5.78,5.78,0,0,1-2.14,1.12,5.42,5.42,0,0,1-3.65-.63,5.57,5.57,0,0,1-1.95-2.11,11.19,11.19,0,0,1-.58-1.59,8.9,8.9,0,0,1-.25-2.18A8.59,8.59,0,0,1,358.19,252.63Z" fill="#fff"></path><path d="M335.19,222.22l0,.05h0Z" fill="#fff"></path><path d="M335.15,222.27s0,.09-.08.12a.73.73,0,0,0-.09.08Z" fill="#fff"></path><path d="M335.07,222.39a1.92,1.92,0,0,1,.67-.56,2.76,2.76,0,0,1,1.32-.31l.17,0,.17,0,.67.11a1.92,1.92,0,0,1,.86.5,1.21,1.21,0,0,1,.43.47,1.89,1.89,0,0,1,.41.87c0,.22.05.44.07.65l-.12.67a1.9,1.9,0,0,1-.49.86,1.86,1.86,0,0,1-.74.62l-.13.06c-.24.1-.48.19-.73.27l-.07,0-.67.06a2.85,2.85,0,0,1-.71-.12l-.63-.29a1.6,1.6,0,0,1-.52-.44l0,0a2,2,0,0,1-.48-.83,2,2,0,0,1-.18-1c0-.22.08-.44.11-.66A2.47,2.47,0,0,1,335.07,222.39Z" fill="#fff"></path><path d="M335,222.47h0l-.23.27Z" fill="#fff"></path><path d="M295,228.88l.87-1,0,0,.1-.1a4,4,0,0,1,.34-.23c.1-.08.16-.21.27-.28A2.38,2.38,0,0,1,297,227l0,0a2,2,0,0,1,.5-.26,3.7,3.7,0,0,1,.48-.09,5.09,5.09,0,0,1,.66-.12,3,3,0,0,1,.5-.1l.19,0a5,5,0,0,1,1.49.2,5.09,5.09,0,0,1,3.41,3.68,5.17,5.17,0,0,1,.11.85,3.76,3.76,0,0,1-.19,2.08,1.12,1.12,0,0,1-.05.13l-.21.48a3.81,3.81,0,0,1-1,1.74,3.73,3.73,0,0,1-1.48,1.24l-1.22.46a3.8,3.8,0,0,1-2,0,2.61,2.61,0,0,1-1.29-.4,3.81,3.81,0,0,1-1.62-1.14l-.74-1.06a5,5,0,0,1-.58-2.52,5.58,5.58,0,0,1,.24-1.41c0-.15.05-.3.08-.45a.36.36,0,0,1,0-.11s0-.06,0-.08C294.57,229.72,294.76,229.3,295,228.88Z" fill="#fff"></path><path d="M293.77,209.15l-.15.91c0,.25-.05.49-.06.73a4.81,4.81,0,0,0,.12,1.07,7,7,0,0,1,0,1c0-.21.07-.41.1-.61h0a6.12,6.12,0,0,0-.11.71,3,3,0,0,0-.25.94c0,.35.07.7.1,1a7.93,7.93,0,0,0,.5,1.31,3.15,3.15,0,0,0,1,1.23,2.18,2.18,0,0,0,.93.59,2.21,2.21,0,0,0,1.07.33,2.12,2.12,0,0,0,1.09,0,3.14,3.14,0,0,0,1.55-.43l.88-.61.71-.84c.15-.34.31-.68.47-1a3,3,0,0,0,.15-.57,15,15,0,0,0,.27-1.63,6.57,6.57,0,0,0-.18-1.59,3.58,3.58,0,0,0-.14-.54c-.16-.49-.34-1-.54-1.45a3.6,3.6,0,0,0-.26-.52,4.64,4.64,0,0,0-1.62-1.76,3.75,3.75,0,0,0-.44-.24,2.66,2.66,0,0,0-1.3-.47,1.72,1.72,0,0,0-.9,0,1.61,1.61,0,0,0-.86.2,1.71,1.71,0,0,0-.78.4,2.65,2.65,0,0,0-.94.94Z" fill="#fff"></path><path d="M326.13,245.54a4,4,0,0,1,.08-.48c.06-.2.1-.41.15-.62s.07-.2.1-.29,0-.11.05-.16l.49-1.06a3.1,3.1,0,0,1,.85-1,4.07,4.07,0,0,1,3.92-.88,4.12,4.12,0,0,1,2.23,1.46,7.37,7.37,0,0,1,.87,1.3c.06.12.12.24.17.37l.09.21a4.87,4.87,0,0,1,.55,2.43s0,.08,0,.13c0,.31,0,.63,0,.94a8,8,0,0,1-.34,2.25,5,5,0,0,1-3.63,3.38,5,5,0,0,1-4.81-1.5,6.86,6.86,0,0,1-1.41-2.65s0-.08,0-.13a7.15,7.15,0,0,1-.12-1.3c.07-.44.14-.87.22-1.3A4.79,4.79,0,0,1,326.13,245.54Z" fill="#fff"></path><path d="M414.58,238.58l.17-.22a5.14,5.14,0,0,1,2.86-2,3.37,3.37,0,0,1,1.81,0,3.55,3.55,0,0,1,1.74.62l.92.78a4.69,4.69,0,0,1,1.09,2.08l.12,1.19a4.72,4.72,0,0,1-.74,2.36l-.12.25A4.82,4.82,0,0,1,416,245l-.92-.78a4.73,4.73,0,0,1-1.1-2.1l-.12-1.2A4.76,4.76,0,0,1,414.58,238.58Z" fill="#fff"></path><path d="M442.69,270.61A3.37,3.37,0,0,1,444,269.4l.84-.32a3.52,3.52,0,0,1,1.85.07,2.67,2.67,0,0,1,1.2.69,2.59,2.59,0,0,1,.87,1,2.73,2.73,0,0,1,.36,1.3,2.64,2.64,0,0,1-.11,1.39c-.14.28-.27.57-.4.86a3.52,3.52,0,0,1-1.33,1.21l-.85.32a3.49,3.49,0,0,1-1.84-.07,2.68,2.68,0,0,1-1.21-.7,3.59,3.59,0,0,1-1.11-3.72C442.42,271.18,442.55,270.9,442.69,270.61Z" fill="#fff"></path><path d="M392,355.78c7.13-18.27,16.1-35.51,28.25-50.94,3.19-4.06,11.27-1.45,9,4.17-6.35,15.48-12.77,31-18.44,46.72-5.76,16-9.7,32.33-13.31,48.9-1.46,6.68-1.39,17.91-10.4,18.79-3.93.38-7.32-2.36-9.07-5.7-2.23-4.24-1.06-9.39-.28-13.84C380.63,387.37,386,371.37,392,355.78Z" fill="#fff"></path><path d="M371.3,443.32a16.59,16.59,0,0,1,2-3.15,8.54,8.54,0,0,1,6.79-3.08,6.38,6.38,0,0,1,3.85,1.1,11,11,0,0,1,3.06,3.28,10.32,10.32,0,0,1,1,5.37c0,.6,0,1.21,0,1.82a13.42,13.42,0,0,1-.37,2.66c0,.25-.07.51-.1.76a10.55,10.55,0,0,1-1.49,4.94c-.17.26-.37.5-.55.76a8.84,8.84,0,0,1-7.55,4,8.73,8.73,0,0,1-7.37-4.62,10.58,10.58,0,0,1-1.47-5.39c0-.44.09-.88.15-1.32.18-1.25.4-2.5.63-3.75A12.35,12.35,0,0,1,371.3,443.32Z" fill="#fff"></path><path d="M361.72,298.64c0,.11.06.23.08.34s0,.27.05.4a.19.19,0,0,1,0,.07,9.2,9.2,0,0,0,2.14,4.07l1.8,1.51a6.82,6.82,0,0,0,3.4,1.23,4.5,4.5,0,0,0,2.36.09,6.75,6.75,0,0,0,3.35-.92l1.89-1.33a6.76,6.76,0,0,0,2-2.9,6.83,6.83,0,0,0,.92-3.5,2.8,2.8,0,0,0,0-.41,26.43,26.43,0,0,0-.27-2.68,2.34,2.34,0,0,0-.09-.38c-.23-.76-.76-2.15-.86-2.34a9.23,9.23,0,0,0-3.19-3.49,13.74,13.74,0,0,0-2.73-1.25,1.37,1.37,0,0,0-.29-.07,21.38,21.38,0,0,0-2.5-.42,8.18,8.18,0,0,0-4.09.94,6.16,6.16,0,0,0-2.41,2,6.25,6.25,0,0,0-1.62,2.81,8.06,8.06,0,0,0-.32,2.57,3.59,3.59,0,0,1,0,.47,7.72,7.72,0,0,0,.2,2.7C361.6,298.34,361.67,298.48,361.72,298.64Z" fill="#fff"></path><path d="M315.06,333.38a2.09,2.09,0,0,0,.21-.34,4.55,4.55,0,0,1,1-1.45c.16-.12.32-.24.5-.35a3.28,3.28,0,0,1,1.57-.73l.05,0,.09,0-.78.29a2.82,2.82,0,0,1,1.35-.37,2.89,2.89,0,0,1,1.51.12,8.22,8.22,0,0,1,1.14.55l.06.05a4.44,4.44,0,0,1,1.56,1.69l.4,1.08a4.52,4.52,0,0,1-.08,2.42,8.43,8.43,0,0,1-.69,1.53,2.57,2.57,0,0,1-.29.44,3.45,3.45,0,0,1-1.23,1.23,3.41,3.41,0,0,1-1.56.73,3.33,3.33,0,0,1-1.77,0,3.45,3.45,0,0,1-1.7-.62l-.89-.75a4.57,4.57,0,0,1-1.07-2l-.12-1.16A4.58,4.58,0,0,1,315.06,333.38Z" fill="#fff"></path><path d="M272,265l.24-.3,1.07-1.26,1.34-.94,0,0,1.51-.57c-.53.15,1.17-.14,1.7-.16h.16a2.28,2.28,0,0,1,.73.12,4.06,4.06,0,0,1,2,.73l.16.11.05,0c.13.08,1.17.95,1.28,1.07l.93,1.33,0,.06.57,1.53,0,.12a5.68,5.68,0,0,1,.16,1.13,3.35,3.35,0,0,1-.06,1.72,2.34,2.34,0,0,1-.17.91l-.06.17-.12.34a7.28,7.28,0,0,1-.4.91,3.19,3.19,0,0,1-.91,1.42,4.3,4.3,0,0,1-.59.69,6.37,6.37,0,0,1-2.87,1.51,4.72,4.72,0,0,1-2.5,0,4.79,4.79,0,0,1-2.4-.87,6.33,6.33,0,0,1-2.21-2.41l0-.06c-.19-.52-.38-1-.58-1.55A13.63,13.63,0,0,1,271,269c0-.14,0-.27,0-.41v-.18c.09-.58.19-1.16.29-1.74A5,5,0,0,1,272,265Z" fill="#fff"></path><path d="M268.31,361.63l1.34-.94.08,0,.14-.07.33-.17a6.27,6.27,0,0,1,4.36-.4l1.39.64a5.71,5.71,0,0,1,2,2.16l.38.58a6.34,6.34,0,0,1,.73,3.46c0,.17,0,.33-.05.5s-.05.62-.05.92a1.69,1.69,0,0,1,0,.23c-.1.58-.19,1.17-.29,1.75a3.18,3.18,0,0,1-.4.88,9.5,9.5,0,0,1-.58,1.15,6.36,6.36,0,0,1-5.56,2.93,6.44,6.44,0,0,1-3.24-1,6.32,6.32,0,0,1-2.19-2.4c-.18-.37-.31-.77-.45-1.15a2.05,2.05,0,0,1-.3-.88c-.06-.56-.12-1.13-.17-1.7.05-.32.11-.64.16-1s.11-.64.17-1,.12-.63.2-.94A6.76,6.76,0,0,1,268.31,361.63Z" fill="#fff"></path><path d="M326.47,420.07a2.9,2.9,0,0,1,.8-1.27,4.37,4.37,0,0,1,1.69-1.41,7.23,7.23,0,0,1,1.39-.52,5.61,5.61,0,0,1,3,.11h0a5.68,5.68,0,0,1,2.54,1.61,5.74,5.74,0,0,1,1.36,2.59l.14,1.27,0,.31.09.86a2.83,2.83,0,0,1-.06,1.5,2.35,2.35,0,0,1-.14.79,3.7,3.7,0,0,1-.33.73c-.11.25-.22.49-.34.73a.37.37,0,0,0-.05.11l-.11.22a5.45,5.45,0,0,1-2.05,1.88,6.14,6.14,0,0,1-4.15.38,5.45,5.45,0,0,1-2.41-1.53,11.69,11.69,0,0,1-1.1-1.52,5,5,0,0,1-.6-1.91c0-.41-.09-.82-.13-1.23l-.15-1.48A4.4,4.4,0,0,1,326.47,420.07Z" fill="#fff"></path><path d="M343.06,361a10.32,10.32,0,0,1,.46-.94,5.4,5.4,0,0,1,.67-.93,4.22,4.22,0,0,1,1.69-1.41l1.33-.49a5.42,5.42,0,0,1,2.88.1,6.36,6.36,0,0,1,3,2,6.78,6.78,0,0,1,1.6,3,7.42,7.42,0,0,1-.16,3.44c-.07.32-.15.64-.24,1a5.75,5.75,0,0,1-4.74,4.23l.68-.25a4,4,0,0,1-2.28.29,2,2,0,0,1-.71-.22l.16.1a5.55,5.55,0,0,1-2.94-1.71l-.85-1.21a12,12,0,0,1-.55-1.52l-.25-.73-.22-.57-.15-1.6c.09-.55.18-1.09.28-1.64A2.81,2.81,0,0,1,343.06,361Z" fill="#fff"></path><path d="M352.41,503.05l.19-.23a5,5,0,0,1,1-1.36,5.23,5.23,0,0,1,2.28-1.2l.31-.06a3.6,3.6,0,0,1,1.87,0,3.71,3.71,0,0,1,1.79.65l.94.8a4.77,4.77,0,0,1,1.13,2.14,2.85,2.85,0,0,0,0,.29,5.08,5.08,0,0,1-1.52,4.88l-.51.42a5.44,5.44,0,0,1-3.45,1.27l-1.29-.22A4.85,4.85,0,0,1,353,509a.68.68,0,0,1-.12-.12c-.24-.33-.48-.67-.71-1a3.65,3.65,0,0,1-.5-1.78,2.49,2.49,0,0,1,.05-1.27A3.56,3.56,0,0,1,352.41,503.05Z" fill="#fff"></path><path d="M281.64,434.34c.24-.53.49-1.06.74-1.59a6.32,6.32,0,0,1,2.41-2.21,4.79,4.79,0,0,1,2.37-.66,5,5,0,0,1,2.53.21,6.43,6.43,0,0,1,2.83,1.8,8.27,8.27,0,0,1,1,1.37,6.5,6.5,0,0,1,.73,3.21,11.39,11.39,0,0,1-.3,1.81,1.43,1.43,0,0,1-.09.27,7,7,0,0,1-1.87,3l-.09.09a6.37,6.37,0,0,1-2.85,1.49,6.14,6.14,0,0,1-3.24-.12,6.84,6.84,0,0,1-3.65-3,6.27,6.27,0,0,1-.71-3.09v0A4.89,4.89,0,0,1,281.64,434.34Z" fill="#fff"></path><path d="M218.09,319.1a6,6,0,0,1,2.14-1.94,6.31,6.31,0,0,1,1.51-.65,4.86,4.86,0,0,1,2.51.09,4.74,4.74,0,0,1,2.11,1.35,6.3,6.3,0,0,1,.94,1.41,5.54,5.54,0,0,1,.39,4.38l-.48,1.35a4,4,0,0,1-1,1.79,3.9,3.9,0,0,1-1.53,1.28l-1.25.47a3.92,3.92,0,0,1-2,0,2.63,2.63,0,0,1-1.33-.41,4,4,0,0,1-1.67-1.17l-.77-1.09a5.23,5.23,0,0,1-.59-2.6c.07-.48.15-1,.23-1.44s.16-1,.26-1.53Z" fill="#fff"></path><path d="M230.2,415.3l.27-.38c.24-.3.49-.59.74-.88a3.27,3.27,0,0,1,1.44-.83l.6-.22.2-.07a4.21,4.21,0,0,1,2.2.08,4.15,4.15,0,0,1,1.86,1.18,4.24,4.24,0,0,1,.92,4.1c0,.07-.05.13-.07.2l0,.09a3.23,3.23,0,0,1-.86,1.5,1.89,1.89,0,0,1-.39.45l-.36.28a3.34,3.34,0,0,1-1.42.82,3.21,3.21,0,0,1-1.62.3l-1.14-.19a3.3,3.3,0,0,1-1.47-.85,2,2,0,0,1-.74-.81,3.23,3.23,0,0,1-.7-1.48c0-.37-.07-.74-.11-1.11A4.34,4.34,0,0,1,230.2,415.3Z" fill="#fff"></path><path d="M184.1,430.26a19.57,19.57,0,0,1,2-.21h.09a6.25,6.25,0,0,1,3.51,1l.13.1,0,0a18.08,18.08,0,0,1,1.57,1.33,7.68,7.68,0,0,1,1.66,7.45l-.36,1.19c0,.09,0,.19-.08.28l0,.11a5.73,5.73,0,0,1-1.5,2.63,3,3,0,0,1-.73.82l-1.59,1.12-.22.12a8.14,8.14,0,0,1-5.6.51l-1.79-.83a7.43,7.43,0,0,1-2.54-2.77l-.12-.23c-.22-.6-.45-1.21-.68-1.82l0-.1a5.72,5.72,0,0,1,0-3,4.34,4.34,0,0,1,.21-1.13c0-.09.05-.19.08-.28l.36-1.19A7.66,7.66,0,0,1,184.1,430.26Z" fill="#fff"></path><path d="M197.78,375.79l0,.1-.12.73q-.07.36-.12.72a.15.15,0,0,0,0,.07,4.12,4.12,0,0,0,.14,1.48l.47,1.26.77,1.11,1.05.88,1.29.6c.19.06,1.29.22.71.12l.68.12h.07c.09,0,1.15-.11,1.23-.13H204a5.3,5.3,0,0,0,2.38-1.24,5.82,5.82,0,0,0,1-1.28c.1-.12.21-.22.3-.35a6.1,6.1,0,0,0,.71-4.11,4.17,4.17,0,0,0-.87-1.85,4.09,4.09,0,0,0-1.46-1.46,5.41,5.41,0,0,0-2.73-.85l-1.38.14a5.35,5.35,0,0,0-2.41,1.27l-.05,0,0,0-.9,1.06-.06.08-.06.1c-.11.22-.52,1.09-.61,1.32C197.79,375.76,197.78,375.77,197.78,375.79Z" fill="#fff"></path><path d="M257.71,484a7.73,7.73,0,0,1,4.94-1.82,7,7,0,0,1,3.54,1.1,7,7,0,0,1,3.21,6.1c-.1.78-.23,1.56-.4,2.33-.25.55-.51,1.09-.76,1.64s-.76.89-1.13,1.34l-1.42,1a5,5,0,0,1-2.49.69,6.57,6.57,0,0,1-3.48-.6,3.32,3.32,0,0,1-1.49-1,5.12,5.12,0,0,1-.77-.7l0,.06-.05-.07a4.87,4.87,0,0,1-.72-1,7,7,0,0,1-1.11-2.37,7,7,0,0,1,2.09-6.73Z" fill="#fff"></path><path d="M213.7,469.52l.75-.88.07-.06.08-.08.19-.18a2.72,2.72,0,0,1,1-.73l1.09-.41a9.56,9.56,0,0,1,1.2-.11,4.53,4.53,0,0,1,2.28.71,3.25,3.25,0,0,1,1.22,1.22,3.37,3.37,0,0,1,.73,1.55,4.47,4.47,0,0,1-.09,2.35,1.72,1.72,0,0,1-.26.59,3.44,3.44,0,0,1-1,1.44,7.45,7.45,0,0,1-1,.71l-.2.12a4.69,4.69,0,0,1-1.28.51l-1.14.11a3.4,3.4,0,0,1-1.72-.45l-.56-.26a4.95,4.95,0,0,1-1.92-2.72c0-.38-.07-.76-.11-1.14a1.23,1.23,0,0,1,.1-.62A3.41,3.41,0,0,1,213.7,469.52Z" fill="#fff"></path><path d="M244.17,552.67s0-.06,0-.09a4.65,4.65,0,0,1,.62-2.34,2.93,2.93,0,0,1,.85-1.34,4.58,4.58,0,0,1,1.77-1.49l1.46-.54,1.56-.15a6.75,6.75,0,0,1,4.28,2,12.31,12.31,0,0,1,1.76,2.74,7.41,7.41,0,0,1,.83,4c-.21,1.31-.37,3-1.24,4.07L255,560.8l-1.36,1-1.55.57a4.76,4.76,0,0,1-2.54,0,3.2,3.2,0,0,1-1.64-.51,6.37,6.37,0,0,1-2.56-2.13,4.94,4.94,0,0,1-1.05-2.24,2.14,2.14,0,0,1-.11-.91,4,4,0,0,1-.08-.92v0a6.29,6.29,0,0,1,.06-2A4.73,4.73,0,0,0,244.17,552.67Z" fill="#fff"></path><path d="M299.92,539.61a3.39,3.39,0,0,1,1.34-1.12l1.1-.41a4.58,4.58,0,0,1,2.38.09h0a3.52,3.52,0,0,1,1.57.9,3.45,3.45,0,0,1,1.13,1.35l.41,1.1a4.45,4.45,0,0,1-.09,2.4l-.15.61a3.09,3.09,0,0,1-.79,1.37,3,3,0,0,1-1.17,1l-1,.35a3.91,3.91,0,0,1-2.09-.07L302,547a3.45,3.45,0,0,1-1.57-.91,3.31,3.31,0,0,1-1.13-1.35c-.14-.36-.28-.73-.41-1.1a4.45,4.45,0,0,1,.09-2.4,0,0,0,0,1,0,0A3.43,3.43,0,0,1,299.92,539.61Z" fill="#fff"></path><path d="M330.26,573.72a5.78,5.78,0,0,1,2.22-2,5.9,5.9,0,0,1,5.94.25l.23.17a8.24,8.24,0,0,1,.65.55,3.44,3.44,0,0,1,.65.55l.9,1.29,0,.09c.11.21.2.43.29.65.18.49.37,1,.55,1.49,0,.28.07.57.09.86a4.72,4.72,0,0,1-.2,2.44l-.7,1.51-1,1.23,0,0-.06.05-.08.06-1.21.84a4.31,4.31,0,0,1-2.12.59,2.93,2.93,0,0,1-1.5-.06l.68.12a9.31,9.31,0,0,1-1.7-.29,6.25,6.25,0,0,1-2.74-1.74l-.91-1.3a7,7,0,0,1-.66-1.91l-.06-.23a4.78,4.78,0,0,1-.14-1,3.81,3.81,0,0,1-.06-1,1.9,1.9,0,0,0,0-.25A6,6,0,0,1,330.26,573.72Z" fill="#fff"></path>                
    </svg>